<svg width="1200" height="1200" viewBox="0 0 1200 1200" fill="none" xmlns="http://www.w3.org/2000/svg">
<rect width="1200" height="1200" rx="80" fill="black"/>
<path d="M650.968 930.53H964.38C974.335 930.531 984.114 927.733 992.735 922.419C1001.36 917.103 1008.51 909.458 1013.49 900.251C1018.46 891.044 1021.08 880.601 1021.08 869.972C1021.07 859.342 1018.45 848.902 1013.46 839.699L802.985 450.418C798.01 441.213 790.854 433.569 782.235 428.255C773.616 422.941 763.839 420.142 753.886 420.142C743.933 420.142 734.155 422.941 725.537 428.255C716.918 433.569 709.761 441.213 704.787 450.418L650.968 550.021L545.743 355.249C540.764 346.046 533.605 338.403 524.983 333.089C516.361 327.777 506.583 324.979 496.628 324.979C486.674 324.979 476.895 327.777 468.274 333.089C459.652 338.403 452.493 346.046 447.514 355.249L185.598 839.699C180.616 848.902 177.99 859.342 177.986 869.972C177.982 880.601 180.599 891.044 185.574 900.251C190.549 909.458 197.707 917.103 206.328 922.419C214.948 927.733 224.728 930.531 234.683 930.53H431.417C509.366 930.53 566.85 893.97 606.404 822.642L702.435 645.058L753.871 550.021L908.241 835.493H702.435L650.968 930.53ZM428.21 835.395L290.914 835.361L496.72 454.755L599.41 645.058L530.655 772.254C504.387 818.533 474.545 835.395 428.21 835.395Z" fill="#00DC82"/>
<mask id="path-3-outside-1_1_6" maskUnits="userSpaceOnUse" x="100.471" y="341.664" width="172" height="128" fill="black">
<rect fill="white" x="100.471" y="341.664" width="172" height="128"/>
<path d="M171.471 439.164C171.471 448.164 168.471 455.331 162.471 460.664C156.471 465.998 149.137 468.664 140.471 468.664C128.804 468.664 119.471 465.164 112.471 458.164C105.471 451.164 101.971 440.664 101.971 426.664C101.971 413.331 103.804 401.831 107.471 392.164C111.471 382.164 116.137 373.831 121.471 367.164C127.137 360.498 132.971 355.331 138.971 351.664C144.971 347.664 150.304 344.831 154.971 343.164L169.971 363.664C160.637 368.331 152.471 374.331 145.471 381.664C138.804 388.998 135.471 398.331 135.471 409.664C136.804 409.331 138.804 409.164 141.471 409.164C149.137 409.164 155.971 411.998 161.971 417.664C168.304 423.331 171.471 430.498 171.471 439.164ZM271.471 439.164C271.471 448.164 268.471 455.331 262.471 460.664C256.471 465.998 249.137 468.664 240.471 468.664C228.804 468.664 219.471 465.164 212.471 458.164C205.471 451.164 201.971 440.664 201.971 426.664C201.971 413.331 203.804 401.831 207.471 392.164C211.471 382.164 216.137 373.831 221.471 367.164C227.137 360.498 232.971 355.331 238.971 351.664C244.971 347.664 250.304 344.831 254.971 343.164L269.971 363.664C260.637 368.331 252.471 374.331 245.471 381.664C238.804 388.998 235.471 398.331 235.471 409.664C236.804 409.331 238.804 409.164 241.471 409.164C249.137 409.164 255.971 411.998 261.971 417.664C268.304 423.331 271.471 430.498 271.471 439.164Z"/>
</mask>
<path d="M171.471 439.164C171.471 448.164 168.471 455.331 162.471 460.664C156.471 465.998 149.137 468.664 140.471 468.664C128.804 468.664 119.471 465.164 112.471 458.164C105.471 451.164 101.971 440.664 101.971 426.664C101.971 413.331 103.804 401.831 107.471 392.164C111.471 382.164 116.137 373.831 121.471 367.164C127.137 360.498 132.971 355.331 138.971 351.664C144.971 347.664 150.304 344.831 154.971 343.164L169.971 363.664C160.637 368.331 152.471 374.331 145.471 381.664C138.804 388.998 135.471 398.331 135.471 409.664C136.804 409.331 138.804 409.164 141.471 409.164C149.137 409.164 155.971 411.998 161.971 417.664C168.304 423.331 171.471 430.498 171.471 439.164ZM271.471 439.164C271.471 448.164 268.471 455.331 262.471 460.664C256.471 465.998 249.137 468.664 240.471 468.664C228.804 468.664 219.471 465.164 212.471 458.164C205.471 451.164 201.971 440.664 201.971 426.664C201.971 413.331 203.804 401.831 207.471 392.164C211.471 382.164 216.137 373.831 221.471 367.164C227.137 360.498 232.971 355.331 238.971 351.664C244.971 347.664 250.304 344.831 254.971 343.164L269.971 363.664C260.637 368.331 252.471 374.331 245.471 381.664C238.804 388.998 235.471 398.331 235.471 409.664C236.804 409.331 238.804 409.164 241.471 409.164C249.137 409.164 255.971 411.998 261.971 417.664C268.304 423.331 271.471 430.498 271.471 439.164Z" fill="#00DC82"/>
<path d="M162.471 460.664L163.135 461.412L163.135 461.412L162.471 460.664ZM112.471 458.164L111.764 458.872L111.764 458.872L112.471 458.164ZM107.471 392.164L106.542 391.793L106.539 391.801L106.536 391.81L107.471 392.164ZM121.471 367.164L120.709 366.517L120.699 366.528L120.69 366.54L121.471 367.164ZM138.971 351.664L139.492 352.518L139.509 352.507L139.525 352.496L138.971 351.664ZM154.971 343.164L155.778 342.574L155.337 341.972L154.634 342.223L154.971 343.164ZM169.971 363.664L170.418 364.559L171.477 364.029L170.778 363.074L169.971 363.664ZM145.471 381.664L144.747 380.974L144.739 380.983L144.731 380.992L145.471 381.664ZM135.471 409.664H134.471V410.945L135.713 410.635L135.471 409.664ZM161.971 417.664L161.284 418.391L161.294 418.401L161.304 418.41L161.971 417.664ZM262.471 460.664L263.135 461.412L263.135 461.412L262.471 460.664ZM212.471 458.164L211.764 458.872L211.764 458.872L212.471 458.164ZM207.471 392.164L206.542 391.793L206.539 391.801L206.536 391.81L207.471 392.164ZM221.471 367.164L220.709 366.517L220.699 366.528L220.69 366.54L221.471 367.164ZM238.971 351.664L239.492 352.518L239.509 352.507L239.525 352.496L238.971 351.664ZM254.971 343.164L255.778 342.574L255.337 341.972L254.634 342.223L254.971 343.164ZM269.971 363.664L270.418 364.559L271.477 364.029L270.778 363.074L269.971 363.664ZM245.471 381.664L244.747 380.974L244.739 380.983L244.731 380.992L245.471 381.664ZM235.471 409.664H234.471V410.945L235.713 410.635L235.471 409.664ZM261.971 417.664L261.284 418.391L261.294 418.401L261.304 418.41L261.971 417.664ZM170.471 439.164C170.471 447.917 167.566 454.798 161.806 459.917L163.135 461.412C169.376 455.865 172.471 448.412 172.471 439.164H170.471ZM161.806 459.917C156.005 465.074 148.914 467.664 140.471 467.664V469.664C149.361 469.664 156.937 466.921 163.135 461.412L161.806 459.917ZM140.471 467.664C129.018 467.664 119.957 464.237 113.178 457.457L111.764 458.872C118.984 466.092 128.59 469.664 140.471 469.664V467.664ZM113.178 457.457C106.431 450.711 102.971 440.51 102.971 426.664H100.971C100.971 440.819 104.51 451.618 111.764 458.872L113.178 457.457ZM102.971 426.664C102.971 413.419 104.792 402.045 108.406 392.519L106.536 391.81C102.816 401.617 100.971 413.243 100.971 426.664H102.971ZM108.399 392.536C112.372 382.604 116.993 374.362 122.252 367.789L120.69 366.54C115.282 373.3 110.57 381.724 106.542 391.793L108.399 392.536ZM122.233 367.812C127.847 361.207 133.602 356.117 139.492 352.518L138.449 350.811C132.34 354.545 126.428 359.788 120.709 366.517L122.233 367.812ZM139.525 352.496C145.485 348.523 150.744 345.736 155.307 344.106L154.634 342.223C149.865 343.926 144.456 346.806 138.416 350.832L139.525 352.496ZM154.164 343.755L169.164 364.255L170.778 363.074L155.778 342.574L154.164 343.755ZM169.523 362.77C160.09 367.487 151.829 373.555 144.747 380.974L146.194 382.355C153.112 375.107 161.185 369.175 170.418 364.559L169.523 362.77ZM144.731 380.992C137.873 388.536 134.471 398.121 134.471 409.664H136.471C136.471 398.542 139.735 389.46 146.211 382.337L144.731 380.992ZM135.713 410.635C136.924 410.332 138.825 410.164 141.471 410.164V408.164C138.784 408.164 136.684 408.33 135.228 408.694L135.713 410.635ZM141.471 410.164C148.861 410.164 155.454 412.885 161.284 418.391L162.657 416.937C156.487 411.11 149.413 408.164 141.471 408.164V410.164ZM161.304 418.41C167.42 423.882 170.471 430.776 170.471 439.164H172.471C172.471 430.22 169.188 422.78 162.638 416.919L161.304 418.41ZM270.471 439.164C270.471 447.917 267.566 454.798 261.806 459.917L263.135 461.412C269.376 455.865 272.471 448.412 272.471 439.164H270.471ZM261.806 459.917C256.005 465.074 248.914 467.664 240.471 467.664V469.664C249.361 469.664 256.937 466.921 263.135 461.412L261.806 459.917ZM240.471 467.664C229.018 467.664 219.957 464.237 213.178 457.457L211.764 458.872C218.984 466.092 228.59 469.664 240.471 469.664V467.664ZM213.178 457.457C206.432 450.711 202.971 440.51 202.971 426.664H200.971C200.971 440.819 204.51 451.618 211.764 458.872L213.178 457.457ZM202.971 426.664C202.971 413.419 204.792 402.045 208.406 392.519L206.536 391.81C202.816 401.617 200.971 413.243 200.971 426.664H202.971ZM208.399 392.536C212.372 382.604 216.993 374.362 222.252 367.789L220.69 366.54C215.282 373.3 210.57 381.724 206.542 391.793L208.399 392.536ZM222.233 367.812C227.847 361.207 233.602 356.117 239.492 352.518L238.449 350.811C232.34 354.545 226.428 359.788 220.709 366.517L222.233 367.812ZM239.525 352.496C245.485 348.523 250.744 345.736 255.307 344.106L254.634 342.223C249.865 343.926 244.456 346.806 238.416 350.832L239.525 352.496ZM254.164 343.755L269.164 364.255L270.778 363.074L255.778 342.574L254.164 343.755ZM269.524 362.77C260.09 367.487 251.829 373.555 244.747 380.974L246.194 382.355C253.112 375.107 261.185 369.175 270.418 364.559L269.524 362.77ZM244.731 380.992C237.873 388.536 234.471 398.121 234.471 409.664H236.471C236.471 398.542 239.735 389.46 246.211 382.337L244.731 380.992ZM235.713 410.635C236.924 410.332 238.825 410.164 241.471 410.164V408.164C238.784 408.164 236.684 408.33 235.228 408.694L235.713 410.635ZM241.471 410.164C248.861 410.164 255.454 412.885 261.284 418.391L262.657 416.937C256.487 411.11 249.413 408.164 241.471 408.164V410.164ZM261.304 418.41C267.42 423.882 270.471 430.776 270.471 439.164H272.471C272.471 430.22 269.188 422.78 262.638 416.919L261.304 418.41Z" fill="#00DC82" mask="url(#path-3-outside-1_1_6)"/>
<mask id="path-5-outside-2_1_6" maskUnits="userSpaceOnUse" x="945.562" y="341.461" width="172" height="128" fill="black">
<rect fill="white" x="945.562" y="341.461" width="172" height="128"/>
<path d="M946.562 371.961C946.562 362.961 949.562 355.794 955.562 350.461C961.562 345.128 968.895 342.461 977.562 342.461C989.229 342.461 998.562 345.961 1005.56 352.961C1012.56 359.961 1016.06 370.461 1016.06 384.461C1016.06 397.794 1014.06 409.461 1010.06 419.461C1006.4 429.128 1001.73 437.294 996.062 443.961C990.729 450.628 985.062 455.961 979.062 459.961C973.062 463.628 967.729 466.294 963.062 467.961L948.062 447.461C957.395 442.794 965.395 436.794 972.062 429.461C979.062 422.128 982.562 412.794 982.562 401.461C981.229 401.794 979.229 401.961 976.562 401.961C968.895 401.961 961.895 399.128 955.562 393.461C949.562 387.794 946.562 380.628 946.562 371.961ZM1046.56 371.961C1046.56 362.961 1049.56 355.794 1055.56 350.461C1061.56 345.128 1068.9 342.461 1077.56 342.461C1089.23 342.461 1098.56 345.961 1105.56 352.961C1112.56 359.961 1116.06 370.461 1116.06 384.461C1116.06 397.794 1114.06 409.461 1110.06 419.461C1106.4 429.128 1101.73 437.294 1096.06 443.961C1090.73 450.628 1085.06 455.961 1079.06 459.961C1073.06 463.628 1067.73 466.294 1063.06 467.961L1048.06 447.461C1057.4 442.794 1065.4 436.794 1072.06 429.461C1079.06 422.128 1082.56 412.794 1082.56 401.461C1081.23 401.794 1079.23 401.961 1076.56 401.961C1068.9 401.961 1061.9 399.128 1055.56 393.461C1049.56 387.794 1046.56 380.628 1046.56 371.961Z"/>
</mask>
<path d="M946.562 371.961C946.562 362.961 949.562 355.794 955.562 350.461C961.562 345.128 968.895 342.461 977.562 342.461C989.229 342.461 998.562 345.961 1005.56 352.961C1012.56 359.961 1016.06 370.461 1016.06 384.461C1016.06 397.794 1014.06 409.461 1010.06 419.461C1006.4 429.128 1001.73 437.294 996.062 443.961C990.729 450.628 985.062 455.961 979.062 459.961C973.062 463.628 967.729 466.294 963.062 467.961L948.062 447.461C957.395 442.794 965.395 436.794 972.062 429.461C979.062 422.128 982.562 412.794 982.562 401.461C981.229 401.794 979.229 401.961 976.562 401.961C968.895 401.961 961.895 399.128 955.562 393.461C949.562 387.794 946.562 380.628 946.562 371.961ZM1046.56 371.961C1046.56 362.961 1049.56 355.794 1055.56 350.461C1061.56 345.128 1068.9 342.461 1077.56 342.461C1089.23 342.461 1098.56 345.961 1105.56 352.961C1112.56 359.961 1116.06 370.461 1116.06 384.461C1116.06 397.794 1114.06 409.461 1110.06 419.461C1106.4 429.128 1101.73 437.294 1096.06 443.961C1090.73 450.628 1085.06 455.961 1079.06 459.961C1073.06 463.628 1067.73 466.294 1063.06 467.961L1048.06 447.461C1057.4 442.794 1065.4 436.794 1072.06 429.461C1079.06 422.128 1082.56 412.794 1082.56 401.461C1081.23 401.794 1079.23 401.961 1076.56 401.961C1068.9 401.961 1061.9 399.128 1055.56 393.461C1049.56 387.794 1046.56 380.628 1046.56 371.961Z" fill="#00DC82"/>
<path d="M955.562 350.461L954.898 349.713L954.898 349.713L955.562 350.461ZM1005.56 352.961L1004.85 353.668L1004.85 353.668L1005.56 352.961ZM1010.06 419.461L1009.13 419.09L1009.13 419.098L1009.13 419.106L1010.06 419.461ZM996.062 443.961L995.3 443.313L995.29 443.325L995.281 443.336L996.062 443.961ZM979.062 459.961L979.583 460.814L979.6 460.804L979.617 460.793L979.062 459.961ZM963.062 467.961L962.255 468.551L962.696 469.154L963.398 468.903L963.062 467.961ZM948.062 447.461L947.615 446.567L946.556 447.096L947.255 448.051L948.062 447.461ZM972.062 429.461L971.339 428.77L971.33 428.779L971.322 428.788L972.062 429.461ZM982.562 401.461H983.562V400.18L982.319 400.491L982.562 401.461ZM955.562 393.461L954.875 394.188L954.885 394.197L954.895 394.206L955.562 393.461ZM1055.56 350.461L1054.9 349.713L1054.9 349.713L1055.56 350.461ZM1105.56 352.961L1104.85 353.668L1104.85 353.668L1105.56 352.961ZM1110.06 419.461L1109.13 419.09L1109.13 419.098L1109.13 419.106L1110.06 419.461ZM1096.06 443.961L1095.3 443.313L1095.29 443.325L1095.28 443.336L1096.06 443.961ZM1079.06 459.961L1079.58 460.814L1079.6 460.804L1079.62 460.793L1079.06 459.961ZM1063.06 467.961L1062.25 468.551L1062.7 469.154L1063.4 468.903L1063.06 467.961ZM1048.06 447.461L1047.61 446.567L1046.56 447.096L1047.25 448.051L1048.06 447.461ZM1072.06 429.461L1071.34 428.77L1071.33 428.779L1071.32 428.788L1072.06 429.461ZM1082.56 401.461H1083.56V400.18L1082.32 400.491L1082.56 401.461ZM1055.56 393.461L1054.88 394.188L1054.89 394.197L1054.9 394.206L1055.56 393.461ZM947.562 371.961C947.562 363.208 950.467 356.328 956.226 351.208L954.898 349.713C948.657 355.261 945.562 362.714 945.562 371.961H947.562ZM956.226 351.208C962.028 346.051 969.119 343.461 977.562 343.461V341.461C968.672 341.461 961.096 344.204 954.898 349.713L956.226 351.208ZM977.562 343.461C989.014 343.461 998.076 346.889 1004.85 353.668L1006.27 352.254C999.048 345.033 989.443 341.461 977.562 341.461V343.461ZM1004.85 353.668C1011.6 360.414 1015.06 370.615 1015.06 384.461H1017.06C1017.06 370.307 1013.52 359.507 1006.27 352.254L1004.85 353.668ZM1015.06 384.461C1015.06 397.696 1013.08 409.232 1009.13 419.09L1010.99 419.832C1015.05 409.69 1017.06 397.892 1017.06 384.461H1015.06ZM1009.13 419.106C1005.49 428.685 1000.88 436.748 995.3 443.313L996.824 444.609C1002.58 437.841 1007.3 429.57 1011 419.816L1009.13 419.106ZM995.281 443.336C990.001 449.937 984.408 455.195 978.507 459.129L979.617 460.793C985.716 456.727 991.457 451.318 996.843 444.586L995.281 443.336ZM978.541 459.108C972.577 462.752 967.307 465.383 962.726 467.019L963.398 468.903C968.15 467.206 973.547 464.503 979.583 460.814L978.541 459.108ZM963.869 467.37L948.869 446.87L947.255 448.051L962.255 468.551L963.869 467.37ZM948.509 448.355C957.947 443.636 966.048 437.563 972.802 430.134L971.322 428.788C964.743 436.025 956.844 441.952 947.615 446.567L948.509 448.355ZM972.785 430.151C979.984 422.61 983.562 413.019 983.562 401.461H981.562C981.562 412.57 978.14 421.646 971.339 428.77L972.785 430.151ZM982.319 400.491C981.109 400.794 979.208 400.961 976.562 400.961V402.961C979.249 402.961 981.349 402.795 982.805 402.431L982.319 400.491ZM976.562 400.961C969.169 400.961 962.4 398.237 956.229 392.716L954.895 394.206C961.39 400.018 968.622 402.961 976.562 402.961V400.961ZM956.249 392.734C950.46 387.267 947.562 380.368 947.562 371.961H945.562C945.562 380.887 948.664 388.322 954.875 394.188L956.249 392.734ZM1047.56 371.961C1047.56 363.208 1050.47 356.328 1056.23 351.208L1054.9 349.713C1048.66 355.261 1045.56 362.714 1045.56 371.961H1047.56ZM1056.23 351.208C1062.03 346.051 1069.12 343.461 1077.56 343.461V341.461C1068.67 341.461 1061.1 344.204 1054.9 349.713L1056.23 351.208ZM1077.56 343.461C1089.01 343.461 1098.08 346.889 1104.85 353.668L1106.27 352.254C1099.05 345.033 1089.44 341.461 1077.56 341.461V343.461ZM1104.85 353.668C1111.6 360.414 1115.06 370.615 1115.06 384.461H1117.06C1117.06 370.307 1113.52 359.507 1106.27 352.254L1104.85 353.668ZM1115.06 384.461C1115.06 397.696 1113.08 409.232 1109.13 419.09L1110.99 419.832C1115.05 409.69 1117.06 397.892 1117.06 384.461H1115.06ZM1109.13 419.106C1105.49 428.685 1100.88 436.748 1095.3 443.313L1096.82 444.609C1102.58 437.841 1107.3 429.57 1111 419.816L1109.13 419.106ZM1095.28 443.336C1090 449.937 1084.41 455.195 1078.51 459.129L1079.62 460.793C1085.72 456.727 1091.46 451.318 1096.84 444.586L1095.28 443.336ZM1078.54 459.108C1072.58 462.752 1067.31 465.383 1062.73 467.019L1063.4 468.903C1068.15 467.206 1073.55 464.503 1079.58 460.814L1078.54 459.108ZM1063.87 467.37L1048.87 446.87L1047.25 448.051L1062.25 468.551L1063.87 467.37ZM1048.51 448.355C1057.95 443.636 1066.05 437.563 1072.8 430.134L1071.32 428.788C1064.74 436.025 1056.84 441.952 1047.61 446.567L1048.51 448.355ZM1072.79 430.151C1079.98 422.61 1083.56 413.019 1083.56 401.461H1081.56C1081.56 412.57 1078.14 421.646 1071.34 428.77L1072.79 430.151ZM1082.32 400.491C1081.11 400.794 1079.21 400.961 1076.56 400.961V402.961C1079.25 402.961 1081.35 402.795 1082.8 402.431L1082.32 400.491ZM1076.56 400.961C1069.17 400.961 1062.4 398.237 1056.23 392.716L1054.9 394.206C1061.39 400.018 1068.62 402.961 1076.56 402.961V400.961ZM1056.25 392.734C1050.46 387.267 1047.56 380.368 1047.56 371.961H1045.56C1045.56 380.887 1048.66 388.322 1054.88 394.188L1056.25 392.734Z" fill="#00DC82" mask="url(#path-5-outside-2_1_6)"/>
</svg>
